<mxfile host="app.diagrams.net" agent="Mozilla/5.0 (Windows NT 10.0; Win64; x64) AppleWebKit/537.36 (KHTML, like Gecko) Chrome/132.0.0.0 Safari/537.36" version="26.0.10">
  <diagram name="Page-1" id="00wZh-ol4it6JQkt7Gdd">
    <mxGraphModel dx="1434" dy="738" grid="1" gridSize="10" guides="1" tooltips="1" connect="1" arrows="1" fold="1" page="1" pageScale="1" pageWidth="850" pageHeight="1100" math="0" shadow="0">
      <root>
        <mxCell id="0" />
        <mxCell id="1" parent="0" />
        <mxCell id="07V669nHP71Aa5sQzjpy-11" value="Message Type: CompressedImage&lt;div&gt;Topic Name:/obj_finder/compressed&lt;/div&gt;" style="text;html=1;align=center;verticalAlign=middle;resizable=0;points=[];autosize=1;strokeColor=none;fillColor=none;" parent="1" vertex="1">
          <mxGeometry x="30" y="480" width="210" height="40" as="geometry" />
        </mxCell>
        <mxCell id="07V669nHP71Aa5sQzjpy-14" value="&lt;span style=&quot;color: rgba(0, 0, 0, 0); font-family: monospace; font-size: 0px; text-align: start;&quot;&gt;%3CmxGraphModel%3E%3Croot%3E%3CmxCell%20id%3D%220%22%2F%3E%3CmxCell%20id%3D%221%22%20parent%3D%220%22%2F%3E%3CmxCell%20id%3D%222%22%20value%3D%22Message%20Type%3A%20CompressedImage%26lt%3Bdiv%26gt%3BTopic%20Name%3A%2Ffind_object%2Fcompressed%26lt%3B%2Fdiv%26gt%3B%22%20style%3D%22text%3Bhtml%3D1%3Balign%3Dcenter%3BverticalAlign%3Dmiddle%3Bresizable%3D0%3Bpoints%3D%5B%5D%3Bautosize%3D1%3BstrokeColor%3Dnone%3BfillColor%3Dnone%3B%22%20vertex%3D%221%22%20parent%3D%221%22%3E%3CmxGeometry%20x%3D%22580%22%20y%3D%2273%22%20width%3D%22220%22%20height%3D%2240%22%20as%3D%22geometry%22%2F%3E%3C%2FmxCell%3E%3C%2Froot%3E%3C%2FmxGraphModel%3E&lt;/span&gt;" style="text;html=1;align=center;verticalAlign=middle;resizable=0;points=[];autosize=1;strokeColor=none;fillColor=none;" parent="1" vertex="1">
          <mxGeometry x="550" y="8" width="20" height="30" as="geometry" />
        </mxCell>
        <mxCell id="4XJyecxcwh25HMB2fOaj-1" value="User&#39;s Laptop Computer" style="swimlane;startSize=30;horizontal=1;containerType=tree;fontSize=14;fillColor=#dae8fc;strokeColor=#6c8ebf;" parent="1" vertex="1">
          <mxGeometry y="160" width="240" height="200" as="geometry">
            <mxRectangle x="470" y="400" width="120" height="30" as="alternateBounds" />
          </mxGeometry>
        </mxCell>
        <mxCell id="07V669nHP71Aa5sQzjpy-3" value="&lt;b&gt;Disp_camera&lt;/b&gt;&lt;div&gt;&lt;b&gt;&lt;br&gt;&lt;/b&gt;&lt;/div&gt;&lt;div&gt;Receives images and displays them&lt;/div&gt;" style="ellipse;whiteSpace=wrap;html=1;" parent="4XJyecxcwh25HMB2fOaj-1" vertex="1">
          <mxGeometry x="17.5" y="55" width="205" height="130" as="geometry" />
        </mxCell>
        <mxCell id="4XJyecxcwh25HMB2fOaj-4" value="Turtlebot3" style="swimlane;startSize=40;horizontal=1;containerType=tree;fontSize=14;fillColor=#dae8fc;strokeColor=#6c8ebf;" parent="1" vertex="1">
          <mxGeometry x="280" y="160" width="600" height="400" as="geometry">
            <mxRectangle x="470" y="400" width="120" height="30" as="alternateBounds" />
          </mxGeometry>
        </mxCell>
        <mxCell id="vDRKom8vyuA4q1xm1v_O-11" style="rounded=0;orthogonalLoop=1;jettySize=auto;html=1;exitX=0;exitY=0;exitDx=0;exitDy=0;entryX=1;entryY=1;entryDx=0;entryDy=0;strokeWidth=2;fillColor=#dae8fc;strokeColor=#6c8ebf;" edge="1" parent="4XJyecxcwh25HMB2fOaj-4" source="07V669nHP71Aa5sQzjpy-7" target="07V669nHP71Aa5sQzjpy-6">
          <mxGeometry relative="1" as="geometry" />
        </mxCell>
        <mxCell id="07V669nHP71Aa5sQzjpy-7" value="&lt;b&gt;rotate_robot&lt;/b&gt;&lt;div&gt;&lt;b&gt;&lt;br&gt;&lt;/b&gt;&lt;/div&gt;&lt;div&gt;Receives pixel coordinates to calculate which direction to rotate.&amp;nbsp;&lt;/div&gt;" style="ellipse;whiteSpace=wrap;html=1;" parent="4XJyecxcwh25HMB2fOaj-4" vertex="1">
          <mxGeometry x="390" y="260" width="200" height="120" as="geometry" />
        </mxCell>
        <mxCell id="07V669nHP71Aa5sQzjpy-12" value="Message Type: geometry_msgs/Point&lt;div&gt;Topic Name:/obj_coordinates&lt;/div&gt;" style="text;html=1;align=center;verticalAlign=middle;resizable=0;points=[];autosize=1;strokeColor=none;fillColor=none;" parent="4XJyecxcwh25HMB2fOaj-4" vertex="1">
          <mxGeometry x="190" y="270" width="220" height="40" as="geometry" />
        </mxCell>
        <mxCell id="vDRKom8vyuA4q1xm1v_O-9" style="edgeStyle=orthogonalEdgeStyle;rounded=0;orthogonalLoop=1;jettySize=auto;html=1;exitX=0;exitY=0.5;exitDx=0;exitDy=0;entryX=0;entryY=0.5;entryDx=0;entryDy=0;strokeWidth=2;fillColor=#dae8fc;strokeColor=#6c8ebf;" edge="1" parent="4XJyecxcwh25HMB2fOaj-4" source="07V669nHP71Aa5sQzjpy-4" target="07V669nHP71Aa5sQzjpy-7">
          <mxGeometry relative="1" as="geometry" />
        </mxCell>
        <mxCell id="07V669nHP71Aa5sQzjpy-4" value="&lt;b&gt;find_object&lt;/b&gt;&lt;div&gt;&lt;b&gt;&lt;br&gt;&lt;/b&gt;&lt;/div&gt;&lt;div&gt;Takes in images as inputs and outputs an image with a selected color outlined and its pixel coordinates&lt;/div&gt;" style="ellipse;whiteSpace=wrap;html=1;direction=west;" parent="4XJyecxcwh25HMB2fOaj-4" vertex="1">
          <mxGeometry x="10" y="260" width="200" height="120" as="geometry" />
        </mxCell>
        <mxCell id="07V669nHP71Aa5sQzjpy-6" value="&lt;b&gt;Camera_robot_bringup&lt;br&gt;&lt;/b&gt;&lt;div&gt;&lt;b&gt;&lt;br&gt;&lt;/b&gt;&lt;/div&gt;&lt;div&gt;Enables the sensors of the robot and publishes their values. Enables the motors of the robot and makes them command-able.&lt;/div&gt;" style="ellipse;whiteSpace=wrap;html=1;" parent="4XJyecxcwh25HMB2fOaj-4" vertex="1">
          <mxGeometry x="175" y="60" width="250" height="140" as="geometry" />
        </mxCell>
        <mxCell id="07V669nHP71Aa5sQzjpy-16" value="Message Type: CompressedImage&lt;div&gt;Topic Name:/image_raw/compressed&lt;/div&gt;" style="text;html=1;align=center;verticalAlign=middle;resizable=0;points=[];autosize=1;strokeColor=none;fillColor=none;" parent="4XJyecxcwh25HMB2fOaj-4" vertex="1">
          <mxGeometry x="-10" y="180" width="220" height="40" as="geometry" />
        </mxCell>
        <mxCell id="07V669nHP71Aa5sQzjpy-18" value="Message Type: Twist&lt;div&gt;Topic Name:/cmd_vel&lt;/div&gt;" style="text;html=1;align=center;verticalAlign=middle;resizable=0;points=[];autosize=1;strokeColor=none;fillColor=none;" parent="4XJyecxcwh25HMB2fOaj-4" vertex="1">
          <mxGeometry x="400" y="200" width="140" height="40" as="geometry" />
        </mxCell>
        <mxCell id="vDRKom8vyuA4q1xm1v_O-12" style="rounded=0;orthogonalLoop=1;jettySize=auto;html=1;exitX=0;exitY=1;exitDx=0;exitDy=0;entryX=0;entryY=1;entryDx=0;entryDy=0;strokeWidth=2;fillColor=#dae8fc;strokeColor=#6c8ebf;" edge="1" parent="4XJyecxcwh25HMB2fOaj-4" source="07V669nHP71Aa5sQzjpy-6" target="07V669nHP71Aa5sQzjpy-4">
          <mxGeometry relative="1" as="geometry">
            <mxPoint x="270.0006781186546" y="548.0735931288068" as="sourcePoint" />
            <mxPoint x="300.9016523516816" y="449.9974746830583" as="targetPoint" />
          </mxGeometry>
        </mxCell>
        <mxCell id="vDRKom8vyuA4q1xm1v_O-13" style="edgeStyle=orthogonalEdgeStyle;rounded=0;orthogonalLoop=1;jettySize=auto;html=1;exitX=1;exitY=0.5;exitDx=0;exitDy=0;entryX=0.5;entryY=1;entryDx=0;entryDy=0;strokeWidth=2;fillColor=#dae8fc;strokeColor=#6c8ebf;" edge="1" parent="1" source="07V669nHP71Aa5sQzjpy-4" target="07V669nHP71Aa5sQzjpy-3">
          <mxGeometry relative="1" as="geometry" />
        </mxCell>
      </root>
    </mxGraphModel>
  </diagram>
</mxfile>
